<svg width="620" height="620" viewBox="0 0 620 620" fill="none" xmlns="http://www.w3.org/2000/svg">
<path d="M620 270.227V597.655C620 609.968 610.081 619.961 597.859 619.961H332.161C319.938 619.961 310.02 609.968 310.02 597.655V536.678C311.23 461.931 319.079 390.332 335.558 357.759C345.438 338.168 361.722 327.506 380.427 321.802C415.768 311.102 477.779 318.419 504.099 317.16C504.099 317.16 583.605 320.346 583.605 274.987C583.605 238.48 548.07 241.352 548.07 241.352C508.902 242.374 479.068 239.699 459.738 232.028C427.365 219.203 426.272 195.678 426.155 187.81C424.554 96.934 291.549 86.0368 174.359 108.579C46.2354 133.127 175.765 318.143 175.765 565.121V598.088C175.531 610.204 165.807 620 153.702 620H22.1415C9.91874 620 0 610.008 0 597.694V31.3934C0 19.08 9.91874 9.08757 22.1415 9.08757H145.813C158.036 9.08757 167.955 19.08 167.955 31.3934C167.955 49.6866 188.378 59.8756 203.139 49.2145C247.617 17.113 304.709 0 368.595 0C511.714 0 619.922 84.0305 619.922 270.227H620ZM382.419 203.782C382.419 177.424 361.214 156.062 335.051 156.062C308.887 156.062 287.683 177.424 287.683 203.782C287.683 230.14 308.887 251.501 335.051 251.501C361.214 251.501 382.419 230.14 382.419 203.782Z" fill="#662482"/>
</svg>
